<svg width="30" height="30" viewBox="0 0 30 30" fill="none" xmlns="http://www.w3.org/2000/svg">
<path d="M5 11.25C4.33696 11.25 3.70107 11.5134 3.23223 11.9822C2.76339 12.4511 2.5 13.087 2.5 13.75V16.25C2.5 16.913 2.76339 17.5489 3.23223 18.0178C3.70107 18.4866 4.33696 18.75 5 18.75H10C10.3315 18.75 10.6495 18.8817 10.8839 19.1161C11.1183 19.3505 11.25 19.6685 11.25 20V25C11.25 25.663 11.5134 26.2989 11.9822 26.7678C12.4511 27.2366 13.087 27.5 13.75 27.5H16.25C16.913 27.5 17.5489 27.2366 18.0178 26.7678C18.4866 26.2989 18.75 25.663 18.75 25V20C18.75 19.6685 18.8817 19.3505 19.1161 19.1161C19.3505 18.8817 19.6685 18.75 20 18.75H25C25.663 18.75 26.2989 18.4866 26.7678 18.0178C27.2366 17.5489 27.5 16.913 27.5 16.25V13.75C27.5 13.087 27.2366 12.4511 26.7678 11.9822C26.2989 11.5134 25.663 11.25 25 11.25H20C19.6685 11.25 19.3505 11.1183 19.1161 10.8839C18.8817 10.6495 18.75 10.3315 18.75 10V5C18.75 4.33696 18.4866 3.70107 18.0178 3.23223C17.5489 2.76339 16.913 2.5 16.25 2.5H13.75C13.087 2.5 12.4511 2.76339 11.9822 3.23223C11.5134 3.70107 11.25 4.33696 11.25 5V10C11.25 10.3315 11.1183 10.6495 10.8839 10.8839C10.6495 11.1183 10.3315 11.25 10 11.25H5Z" stroke="white" stroke-width="2" stroke-linecap="round" stroke-linejoin="round"/>
</svg>
